PathFileType	4	(X/Y/Z)	C:/Users/beibeiliu/ov580/test_trc/User3\sequence.31_training_dense_right.trc
DataRate	CameraRate	NumFrames	NumMarkers	Units	OrigDataRate	OrigDataStartFrame	OrigNumFrames
120	120	20	19	mm	120	34	268
Frame#	Time	ThumbCMC			ThumbMCP			ThumbIP			ThumbTip			IndexMCP			IndexPIP			IndexTip			MiddleMCP			MiddlePIP			MiddleTip			RingMCP			RingPIP			RingTip			PinkyMCP			PinkyPIP			PinkyTip			BackHand1			BackHand2			BackHand3	
		X0	Y0	Z0	X1	Y1	Z1	X2	Y2	Z2	X3	Y3	Z3	X4	Y4	Z4	X5	Y5	Z5	X6	Y6	Z6	X7	Y7	Z7	X8	Y8	Z8	X9	Y9	Z9	X10	Y10	Z10	X11	Y11	Z11	X12	Y12	Z12	X13	Y13	Z13	X14	Y14	Z14	X15	Y15	Z15	X16	Y16	Z16	X17	Y17	Z17	X18	Y18	Z18	
33	0.275	144.388	-27.2162	25.4376	132.401	-44.4106	-0.00458549	138.04	-64.2307	-22.0108	162.791	-76.9481	-26.4982	142.987	-58.0072	-43.5719	137.126	-86.2093	-29.4944	147.877	-74.426	-1.68493	165.385	-69.7446	-41.6882	155.438	-92.8738	-20.442	157.874	-68.5446	8.72347	178.078	-73.867	-29.569	174.462	-91.1595	-1.87774	171.836	-66.4831	16.0736	194.01	-77.6915	-17.3807	180.87	-80.7642	7.71745	187.559	-54.2206	19.7389	202.734	-23.3518	-6.60365	207.889	-12.363	25.0463	169.148	-9.5034	11.567	
34	0.283333	135.261	-27.9627	27.4851	125.35	-45.7966	-0.197412	128.891	-68.6136	-23.6782	152.534	-81.6667	-24.6873	136.514	-67.1215	-34.8857	128.38	-87.9082	-13.4471	140.702	-66.109	9.73489	154.706	-76.5496	-34.0198	148.011	-95.757	-10.1857	159.399	-61.8865	15.1071	170.832	-83.1494	-23.6003	163.648	-93.9668	4.53896	165.349	-65.8474	20.2665	185.942	-85.1718	-13.9796	170.976	-88.3916	6.98773	174.599	-56.7906	16.0671	192.648	-31.9693	-7.75523	200.838	-19.0828	22.621	168.229	-16.6525	7.88463	
35	0.291667	129.687	-23.0556	26.571	113.81	-51.7057	7.02626	114.831	-79.0637	-6.46414	140.215	-97.1424	-11.407	116.367	-69.4202	-24.803	112.331	-87.66	1.43	134.056	-63.2815	17.5432	133.322	-84.664	-21.8106	127.668	-93.756	6.65581	144.821	-59.3847	21.2505	156.38	-88.2098	-13.5035	144.875	-93.8147	15.8257	152.587	-60.3113	24.3309	169.966	-90.4441	-5.82554	156.233	-85.2439	21.2319	169.166	-61.2258	24.1982	181.704	-39.0052	-12.61	191.749	-22.7134	14.6345	160.11	-15.6134	1.35929	
36	0.3	129.12	-21.7136	30.0205	107.872	-46.264	9.75486	116.14	-73.6824	-5.37184	140.598	-88.851	-4.65097	114.821	-62.6933	-24.0093	103.075	-78.4767	6.43424	121.914	-56.6408	20.063	128.904	-76.3251	-21.7295	115.263	-86.3633	8.68139	140.025	-56.4332	22.9984	146.14	-85.9724	-11.1858	133.498	-88.4927	19.5797	144.16	-62.7647	32.7903	156.595	-92.3552	-2.30189	145.731	-91.1782	23.9325	150.902	-70.1752	43.3012	179.462	-38.8317	-8.06959	188.649	-26.383	16.7882	154.753	-13.0593	4.66811	
37	0.308333	123.823	-16.1572	26.689	105.285	-44.9521	14.6819	108.629	-72.9056	7.10267	132.563	-90.9508	5.59833	105.054	-57.1931	-20.0896	92.6389	-70.8828	8.24267	110.935	-47.8465	23.2345	119.284	-78.4331	-15.2531	110.342	-81.6916	15.1208	133.961	-51.0877	25.7152	133.345	-85.0752	-5.44165	123.81	-82.1152	23.2159	140.9	-51.6907	27.0901	150.362	-86.5352	0.0643123	137.612	-80.5119	25.538	151.874	-51.161	23.9582	171.422	-41.5843	-10.9996	187.237	-26.8903	13.4191	157.272	-12.1666	4.35179	
38	0.316667	127.036	-12.2345	24.6754	100.215	-31.2988	10.0724	99.7677	-61.6174	-3.61776	120.32	-84.4897	-1.14917	102.52	-55.8603	-22.3512	89.4937	-65.4377	3.32199	107.42	-46.4478	23.0609	115.574	-72.1507	-16.0734	99.6829	-72.0426	12.6967	126.412	-47.8903	27.6714	128.074	-80.7864	-4.50688	115.76	-84.2401	21.033	120.355	-59.2537	44.3992	140.482	-87.0173	4.76545	127.243	-80.5926	28.0873	129.953	-57.7797	43.9646	171.664	-43.7959	-4.55589	185.632	-27.0053	22.1395	158.772	-11.9023	5.5675	
39	0.325	137.66	-5.62592	18.8029	109.82	-16.261	8.68417	91.2654	-43.0386	-2.69802	101.316	-69.8076	-2.20416	101.118	-47.8013	-24.412	76.6318	-48.8076	-1.72102	96.3226	-34.2101	20.4686	106.322	-62.1949	-13.2614	87.3708	-63.8205	15.0043	96.4491	-41.3982	49.4973	115.272	-74.3651	0.658284	101.693	-68.1336	28.5671	112.063	-54.1598	51.9675	129.111	-87.2405	9.59807	120.062	-76.3601	32.9656	142.979	-54.7911	38.7558	172.935	-54.2554	-5.62764	191.603	-40.1323	14.146	160.665	-15.7825	-4.60057	
40	0.333333	139.965	-0.135505	20.2225	107.987	-17.7836	9.59877	88.3533	-41.3738	1.68182	98.0686	-68.1325	5.76125	97.7413	-40.2161	-24.9863	76.1046	-39.5137	0.13895	102.526	-26.6882	18.1919	103.352	-55.5441	-12.8099	86.5665	-53.3669	17.3124	110.994	-33.3418	44.0882	110.428	-69.0373	3.82406	100.706	-61.4532	29.2268	119.263	-38.931	48.7162	124.528	-78.3755	12.2124	114.118	-66.0474	34.162	133.328	-41.9511	45.8637	166.315	-53.2732	-5.20476	186.337	-41.4975	13.9519	164.743	-18.2523	-3.5305	
41	0.341667	144.72	-0.987357	11.5514	110.734	-8.50616	4.646	91.3407	-37.2618	1.12789	96.9455	-65.9583	10.8493	99.2264	-32.0677	-27.3679	86.9314	-24.5371	0.650126	118.893	-18.2514	11.0132	102.967	-50.527	-16.9657	92.7328	-40.4222	13.9741	126.356	-31.3938	21.721	106.61	-60.351	-1.74029	99.6945	-48.47	26.0552	124.874	-28.8847	33.5115	115.801	-74.8697	13.1779	108.711	-57.2344	31.6209	131.628	-35.7736	43.1528	165.77	-62.57	-2.49348	186.683	-50.2659	15.9787	171.564	-24.1965	-6.56174	
42	0.35	156.395	-1.24387	13.4848	124.316	-7.94368	0.208	102.671	-32.4067	-13.5219	94.9285	-54.7788	-10.7325	116.706	-25.4997	-37.9874	94.1349	-20.5842	-15.453	123.459	-12.97	6.33164	114.434	-47.4437	-24.7283	95.5594	-29.9694	0.327432	127.709	-24.8875	20.8775	112.828	-61.8374	-10.052	97.5659	-45.2698	8.57907	116.246	-25.1763	28.3767	119.709	-68.678	2.53097	104.99	-52.8656	17.9489	109.993	-29.8267	36.3661	169.107	-61.8876	-2.79208	189.266	-53.2793	23.9761	181.262	-25.9943	-0.312703	
43	0.358333	164.075	-3.1516	0.170312	123.05	-3.21904	-7.04837	103.357	-29.5972	-1.70095	102.242	-52.4011	12.0491	127.394	-32.9418	-44.2471	108.868	-15.5271	-22.7719	134.995	-14.6942	-4.08168	117.225	-48.065	-29.8798	104.263	-26.5796	-9.11702	136.235	-25.3239	10.1267	114.285	-57.9247	-9.81425	105.208	-32.8445	7.10231	134.566	-23.2005	25.2852	116.149	-65.4854	5.16904	114.826	-42.1153	25.3831	142.907	-45.6955	30.4422	170.599	-69.1427	2.39659	186.575	-61.5087	31.2405	184.993	-43.2846	-3.9988	
44	0.366667	169.412	-8.18981	0.42173	132.527	-5.72098	-16.6235	107.129	-25.9968	-15.5587	99.5928	-51.1787	-3.26331	134.794	-35.5778	-46.5156	114.387	-12.8063	-32.0513	139.572	-10.4303	-9.31993	124.151	-46.4324	-34.553	109.116	-19.9031	-18.4204	142.007	-22.1676	4.761	117.48	-55.3862	-14.6102	109.709	-30.8856	2.11439	141.687	-29.1123	15.8324	118.229	-62.2987	0.109696	115.647	-34.176	9.05916	145.129	-31.0216	16.6415	166.819	-73.2913	2.50941	188.218	-59.0258	29.8323	188.339	-42.9438	-2.62079	
45	0.375	179.52	-9.81868	-2.8479	143.02	-4.14556	-20.3414	117.414	-20.5015	-21.7173	106.79	-40.721	-8.65242	140.805	-26.102	-54.2749	125.069	-5.11339	-34.4461	152.179	-11.7271	-12.9168	125.222	-42.0802	-40.1347	118.543	-11.5306	-25.9598	150.775	-19.2597	-1.98102	121.667	-46.8931	-24.7999	115.57	-20.7166	-8.01004	145.12	-23.0056	8.2242	112.254	-54.1534	-7.25544	112.566	-29.1789	-4.49116	138.959	-13.5185	7.00105	162.481	-74.3664	1.78458	180.085	-70.1726	24.4546	190.873	-49.1948	-5.8177	
46	0.383333	189.826	-13.8323	-0.61087	155.142	-4.95638	-19.1938	127.593	-12.0443	-24.9758	110.566	-36.9113	-13.2213	143.642	-40.1139	-57.4632	122.387	-17.6802	-57.9022	137.526	-6.53604	-26.5849	132.597	-44.2049	-41.7154	114.246	-18.893	-27.0296	145.149	-13.5051	-4.09666	123.037	-48.5546	-19.0436	118.822	-24.5146	-4.14038	153.514	-23.1582	8.77165	127.751	-73.7586	-14.4444	110.326	-51.6232	-19.7704	118.003	-35.0523	2.6385	174.103	-71.4943	-1.79091	190.968	-70.2549	22.7847	199.683	-50.2141	-5.07941	
47	0.391667	193.785	-11.0797	2.65072	162.365	-6.57056	-20.0642	134.97	-18.9222	-28.8041	116.032	-26.3458	-34.8115	164.973	-39.5449	-63.2337	138.679	-20.1544	-73.3729	127.519	-0.613559	-57.5477	151.18	-49.793	-62.9171	127.324	-31.1691	-68.9823	119.472	-6.31705	-34.8211	137.763	-56.1428	-40.8655	118.191	-33.1204	-40.0127	134.783	-19.9023	-10.0212	133.103	-66.4901	-27.6655	113.589	-46.5931	-29.5194	120.947	-28.6658	-5.43994	176.161	-75.8306	0.121687	188.712	-71.5747	22.493	203.351	-52.8361	-2.79583	
48	0.4	193.302	-13.5213	-2.18985	162.197	-4.66305	-18.3132	129.19	-21.2334	-25.9343	119.874	-43.2929	-9.91393	168.2	-45.296	-67.5765	146.765	-27.3265	-83.6826	131.495	-6.18243	-71.5732	154.848	-62.4595	-60.9376	131.096	-45.6972	-77.8982	110.767	-19.2381	-66.8172	137.08	-58.3182	-38.1028	118.541	-35.4412	-33.6417	138.021	-25.3197	-5.12284	128.17	-59.3571	-15.6098	122.329	-33.3625	-9.60065	150.143	-27.8652	1.96297	178.998	-74.3574	-3.85827	192.808	-68.9075	25.8398	205.978	-52.9834	-4.78281	
49	0.408333	201.859	-18.8223	4.1156	171.389	-3.86022	-18.1907	141.234	-15.5704	-25.0992	123.301	-30.9515	-17.0459	177.123	-43.9983	-63.1967	154.579	-35.9499	-90.529	136.902	-22.6591	-97.6727	156.619	-69.0801	-59.387	137.552	-66.0548	-81.1942	109.631	-50.1737	-96.9635	137.454	-57.1248	-34.4373	117.509	-34.2488	-26.0717	138.399	-22.8044	-3.05651	134.087	-62.8866	-16.4742	118.804	-38.9356	-11.8929	130.472	-32.1898	13.0818	179.881	-79.8591	0.376926	195.635	-75.795	23.7276	207.847	-57.8057	-4.74149	
50	0.416667	196.801	-18.4247	4.87514	165.912	-1.92704	-17.4407	139.443	-16.2419	-26.8766	122.85	-39.1793	-20.5155	180.563	-47.4084	-62.3114	164.499	-42.4857	-91.8183	145.487	-33.0247	-105.771	160.115	-61.236	-60.98	140.969	-56.6993	-82.6687	119.896	-48.9229	-105.018	136.773	-48.6308	-37.6939	127.512	-25.3023	-20.5189	149.008	-28.1698	1.92123	128.074	-57.2953	-22.6785	124.029	-35.0934	-7.51553	152.108	-38.6913	9.19331	179.92	-79.9561	-7.50677	191.658	-76.3838	19.9201	209.157	-53.0571	-2.68969	
51	0.425	199.357	-20.1824	1.11191	166.696	-10.2761	-19.926	135.074	-22.6547	-25.2308	124.585	-41.3828	-11.1183	178.405	-47.1791	-69.0407	166.788	-41.9767	-91.9386	152.948	-35.2133	-112.149	158.283	-68.9279	-61.5661	142.623	-64.4748	-86.5863	122.18	-50.4191	-107.349	135.532	-59.6222	-37.2269	117.991	-33.2621	-27.9737	140.567	-25.853	-4.76294	124.34	-58.5469	-7.66854	127.689	-32.7295	-4.92497	155.533	-33.6754	6.6868	177.336	-81.8758	0.460996	193.654	-75.2911	23.5271	203.229	-59.82	-3.30049	
52	0.433333	199.225	-18.1602	1.9863	168.362	-6.13443	-20.2676	138.725	-17.6758	-27.6385	126.219	-41.832	-18.9541	178.781	-47.4776	-67.485	169.135	-45.0144	-92.968	156.66	-38.94	-113.493	161.432	-65.4735	-62.4824	141.443	-64.0765	-88.3394	117.415	-52.0125	-109.71	139.934	-55.8298	-42.4681	120.78	-31.2335	-32.6934	138.216	-27.6839	-6.66264	126.424	-62.6778	-16.2875	126.097	-35.2644	-10.7257	155.826	-37.2429	5.94441	180.478	-79.5438	-6.95914	193.236	-78.9172	23.2665	205.823	-59.4255	-3.16134	
